<?xml version="1.0" encoding="utf-8"?>
<svg version="1.1" id="Layer_1" xmlns="http://www.w3.org/2000/svg" x="0px" y="0px" viewBox="0 0 708.7 137" style="enable-background:new 0 0 708.7 137;" xml:space="preserve">
<style type="text/css">
.st0{fill:#FFFFFF;}
</style>
<polygon class="st0" points="583.7,32.9 617,102.2 650.3,32.9"/>
<polygon class="st0" points="647.7,102.2 631.2,102.2 664.5,33 680.9,33"/>
<polygon class="st0" points="586.3,102.2 602.8,102.2 569.6,33 553.1,33"/>
<polygon class="st0" points="158,102.2 141.8,102.2 141.8,32.9 158,32.9"/>
<path class="st0" d="M179.8,33c0.5,0.1,0.9,0.2,1.3,0.4c0.4,0.2,0.7,0.4,1.1,0.7c0.3,0.3,0.8,0.7,1.2,1.3L216.3,77 c-0.1-1.3-0.2-2.6-0.3-3.9c-0.1-1.3-0.1-2.4-0.1-3.5V32.9h14.2v69.3h-8.4c-1.2,0-2.3-0.2-3.1-0.6c-0.9-0.4-1.7-1.1-2.5-2.1 l-32.7-41.3c0.1,1.2,0.2,2.4,0.2,3.5c0.1,1.2,0.1,2.3,0.1,3.3v37.2h-14.2V32.9h8.5C178.8,32.9,179.4,32.9,179.8,33L179.8,33z"/>
<polygon class="st0" points="285.7,32.9 285.7,45.3 257.3,45.3 257.2,61.5 279,61.5 279,73.3 257.2,73.3 257.2,89.8 285.7,89.8 285.7,102.2 241.1,102.2 241.1,32.9"/>
<path class="st0" d="M332.9,99c2.4,0,4.5-0.1,6.5-0.4c2-0.2,3.8-0.6,5.5-1.1s3.3-1.1,4.8-1.8c1.5-0.7,3-1.5,4.6-2.4V74.7H341 c-0.4,0-0.7-0.1-0.9-0.3c-0.2-0.2-0.4-0.5-0.4-0.8v-2.7h19.2v24.6c-1.7,1.2-3.5,2.3-5.4,3.2c-1.9,1-3.9,1.7-6,2.4 c-2.1,0.6-4.4,1.1-6.9,1.5c-2.5,0.3-5.1,0.5-8,0.5c-5,0-9.6-0.8-13.7-2.5s-7.7-4.1-10.6-7.1c-3-3.1-5.2-6.8-6.9-11.2 c-1.6-4.4-2.5-9.2-2.5-14.6s0.8-10.2,2.5-14.6c1.6-4.4,3.9-8.1,7-11.2c3-3.1,6.7-5.5,11-7.1c4.3-1.7,9.1-2.5,14.4-2.5 c2.7,0,5.1,0.2,7.3,0.6c2.2,0.4,4.3,0.9,6.2,1.6c1.9,0.7,3.7,1.6,5.4,2.6c1.7,1,3.3,2.2,4.8,3.6l-1.3,2.1c-0.3,0.5-0.7,0.7-1.2,0.7 c-0.3,0-0.6-0.1-0.8-0.2c-0.5-0.2-1.2-0.7-2.1-1.4c-0.9-0.7-2.2-1.5-3.8-2.3c-1.6-0.8-3.6-1.5-5.9-2.1c-2.4-0.6-5.3-0.9-8.7-0.9 c-4.5,0-8.6,0.7-12.2,2.2c-3.6,1.4-6.7,3.5-9.3,6.2c-2.6,2.7-4.5,5.9-5.9,9.8c-1.4,3.8-2.1,8.2-2.1,13c0,4.9,0.7,9.3,2.1,13.2 s3.4,7.2,5.9,9.9c2.5,2.7,5.6,4.8,9.1,6.2C324.7,98.2,328.6,99,332.9,99L332.9,99z"/>
<path class="st0" d="M382.9,70.9v31.4h-5V33h17.7c8,0,14,1.5,17.9,4.6c4,3.1,5.9,7.6,5.9,13.6c0,2.6-0.5,5.1-1.4,7.3 s-2.2,4.1-3.9,5.7c-1.7,1.7-3.8,3-6.2,4.1c-2.4,1.1-5.1,1.8-8.2,2.1c0.8,0.5,1.5,1.1,2.1,2l23.8,30h-4.4c-0.5,0-1-0.1-1.4-0.3 c-0.4-0.2-0.7-0.5-1.1-1L396.5,73c-0.6-0.7-1.2-1.2-1.8-1.5c-0.6-0.3-1.6-0.4-3-0.4L382.9,70.9z M382.9,67.2H395 c3.1,0,5.8-0.4,8.2-1.1c2.4-0.7,4.5-1.8,6.2-3.1c1.7-1.4,3-3,3.9-4.9s1.3-4.1,1.3-6.5c0-4.9-1.6-8.6-4.8-11 c-3.2-2.4-7.9-3.6-14.1-3.6H383L382.9,67.2z"/>
<polygon class="st0" points="443.9,102.3 438.9,102.3 438.9,33 443.9,33"/>
<path class="st0" d="M522.7,67.6c0,5.4-0.8,10.2-2.4,14.4c-1.6,4.3-3.9,7.9-6.8,10.9c-2.9,3-6.4,5.3-10.4,6.9 c-4.1,1.6-8.5,2.4-13.5,2.4h-25.3V32.9h25.3c4.9,0,9.4,0.8,13.5,2.4c4.1,1.6,7.5,3.9,10.4,6.9c2.9,3,5.2,6.6,6.8,10.9 C521.9,57.5,522.7,62.3,522.7,67.6L522.7,67.6z M517.5,67.6c0-4.8-0.7-9.1-2-12.9c-1.3-3.8-3.2-7-5.7-9.6c-2.4-2.6-5.4-4.6-8.8-6 c-3.4-1.4-7.2-2.1-11.4-2.1h-20.2v61.2h20.2c4.2,0,8-0.7,11.4-2c3.4-1.4,6.4-3.4,8.8-6c2.4-2.6,4.3-5.8,5.7-9.6 C516.8,76.8,517.5,72.5,517.5,67.6L517.5,67.6z"/>
<path class="st0" d="M134.3,32.8l-24.2,69.4H94.9l-12.1-43c-0.3-0.7-0.5-1.4-0.7-2.2s-0.5-1.7-0.7-2.5c-0.2,0.9-0.5,1.7-0.7,2.5 s-0.5,1.5-0.7,2.2l-14.2,43H50.5L27.8,32.8h14c1.4,0,2.7,0.3,3.6,1c1,0.6,1.6,1.5,1.9,2.5l9.9,37.2c0.3,1.1,0.6,2.4,0.9,3.7 c0.3,1.3,0.6,2.8,0.9,4.2c0.6-3,1.6-6,2.4-8L74,36.2c0.4-1.1,0.8-1.8,1.8-2.5s2.2-1,3.6-1h5c1.4,0,2.6,0.4,3.5,1 c0.9,0.6,1.5,1.3,1.9,2.5l10.9,37.2c0.7,2.4,1.4,4.7,2,7.6c0.3-1.4,0.6-2.8,0.9-4c0.4-1.5,0.7-2.4,1-3.5l11.2-37.2 c0.3-1,0.9-1.7,1.9-2.4c1-0.7,2.2-1,3.5-1h13.1V32.8z"/>
<path class="st0" d="M541.5,46.8c-1.5,1.5-3.4,2.2-5.6,2.2c-2.2,0-4.1-0.8-5.7-2.3c-1.5-1.5-2.3-3.4-2.3-5.7 c0-2.3,0.8-4.3,2.5-5.8c1.6-1.4,3.4-2.2,5.5-2.2c2.2,0,4.1,0.8,5.6,2.3c1.6,1.6,2.3,3.4,2.3,5.6C543.8,43.4,543,45.3,541.5,46.8z M531.2,36.5c-1.3,1.3-1.9,2.8-1.9,4.6c0,1.8,0.6,3.4,1.9,4.7c1.3,1.3,2.8,1.9,4.6,1.9s3.4-0.6,4.6-1.9c1.3-1.3,1.9-2.9,1.9-4.7 c0-1.8-0.6-3.3-1.9-4.6c-1.3-1.3-2.8-2-4.6-2C534.1,34.5,532.5,35.2,531.2,36.5z M532.4,45.5v-8.8c0.5,0,1.4,0,2.5,0s1.7,0,1.8,0 c0.7,0.1,1.3,0.2,1.7,0.5c0.8,0.4,1.2,1.1,1.2,2.1c0,0.7-0.2,1.3-0.6,1.6c-0.4,0.3-0.9,0.5-1.5,0.6c0.6,0.1,1,0.3,1.3,0.5 c0.5,0.4,0.8,1.1,0.8,2v0.8c0,0.1,0,0.2,0,0.3s0,0.2,0.1,0.3l0.1,0.2h-2.2c-0.1-0.3-0.1-0.7-0.1-1.2s-0.1-0.9-0.1-1.1 c-0.1-0.3-0.3-0.5-0.6-0.6c-0.2-0.1-0.4-0.1-0.8-0.1h-0.5H535v3.1h-2.6V45.5z M536.6,38.4c-0.3-0.1-0.8-0.2-1.3-0.2h-0.6v2.6h0.9 c0.5,0,1-0.1,1.3-0.3s0.5-0.6,0.5-1C537.3,39,537.1,38.6,536.6,38.4z"/>
</svg>
